<?xml version="1.0" encoding="UTF-8"?>
<svg id="Layer_1" xmlns="http://www.w3.org/2000/svg" version="1.1" viewBox="0 0 48 48">
  <!-- Generator: Adobe Illustrator 29.5.1, SVG Export Plug-In . SVG Version: 2.1.0 Build 141)  -->
  <defs>
    <style>
      .st0 {
        fill: #fff;
      }
    </style>
  </defs>
  <path class="st0" d="M23.46,45.64v1.5c-.5-.44-.86-1.03-1.01-1.71-.16-.63-.42-1.21-.77-1.73-1.05-1.62-2.87-2.69-4.93-2.69-.25,0-.5.02-.74.05-.37.04-.74.13-1.09.24-.57.18-1.1.45-1.58.8-.14.01-.28.02-.42.02-1.4,0-2.65-.57-3.56-1.48-.54-.54-.5-1.43.06-1.95l5.4-4.94c.57-.52,1.47-.47,1.96.12,0,0,.01.01.02.02.34.41.88.57,1.39.43.41-.11.85-.17,1.29-.17,1.11,0,2.13.36,2.96.96.32.24.51.62.53,1.02l.32,6.33v.07s.16,3.12.16,3.12Z"/>
  <path class="st0" d="M24,6.04s.06,0,.09,0h0s-.09,0-.09,0Z"/>
  <path class="st0" d="M24.54,45.64v1.5c.5-.44.86-1.03,1.01-1.71.16-.63.42-1.21.77-1.73,1.05-1.62,2.87-2.69,4.93-2.69.25,0,.5.02.74.05.37.04.74.13,1.09.24.57.18,1.1.45,1.58.8.14.01.28.02.42.02,1.4,0,2.65-.57,3.56-1.48.54-.54.5-1.43-.06-1.95l-5.4-4.94c-.57-.52-1.47-.47-1.96.12,0,0-.01.01-.02.02-.34.41-.88.57-1.39.43-.41-.11-.85-.17-1.29-.17-1.11,0-2.13.36-2.96.96-.32.24-.51.62-.53,1.02l-.32,6.33v.07s-.16,3.12-.16,3.12Z"/>
  <path class="st0" d="M23.9,6.04h.1-.1Z"/>
  <path class="st0" d="M43.73,13.77c-.28.28-.56.55-.86.81-.05-.01-.09-.02-.14-.03.34-.25.68-.51,1-.78.79-.79,1.5-1.64,2.15-2.55.15-.22.3-.44.44-.66.17-.26.34-.53.5-.8.11-.35.18-.73.18-1.11,0-1.01-.43-1.92-1.11-2.57-.69,1.09-1.47,2.1-2.35,3.03-.25.26-.5.51-.76.76.21-.25.4-.5.6-.76.79-1.06,1.47-2.2,2.03-3.41,0,0-.02-.01-.03-.02.31-.52.49-1.13.49-1.79,0-1.29-.7-2.42-1.73-3.03-.59,1.68-1.4,3.26-2.4,4.69-.34.5-.71.98-1.1,1.43-.19.23-.38.45-.58.67-3.35,3.67-8.05,6.09-13.32,6.45,1.03-.82,1.69-2.09,1.69-3.52,0-2.44-1.92-4.43-4.34-4.53-.03,0-.06,0-.09,0s-.07,0-.1,0c-2.42.1-4.34,2.09-4.34,4.53,0,1.43.66,2.7,1.69,3.52-5.27-.36-9.97-2.78-13.32-6.45-.2-.22-.39-.44-.58-.67-.39-.46-.76-.94-1.1-1.43-1-1.44-1.81-3.02-2.4-4.69-1.04.61-1.73,1.74-1.73,3.03,0,.65.18,1.27.49,1.79-.01,0-.02.01-.03.02.57,1.21,1.25,2.35,2.03,3.41.2.26.39.51.6.76-.26-.25-.51-.5-.76-.76-.88-.93-1.66-1.94-2.35-3.03-.68.64-1.11,1.56-1.11,2.57,0,.39.07.76.18,1.11.16.27.32.54.5.8.14.22.29.44.44.66.65.91,1.36,1.76,2.15,2.55.32.27.66.53,1,.78-.05.01-.09.02-.14.03-.3-.26-.58-.53-.86-.81-1.04-.86-1.98-1.82-2.81-2.87-.29.51-.45,1.1-.45,1.73,0,.49.1.95.28,1.37h0c.33.48.68.94,1.05,1.38.21.25.41.49.64.73.94,1.04,2,1.97,3.14,2.79-1.19-.73-2.29-1.59-3.29-2.55-.27.5-.42,1.07-.42,1.67,0,1.09.5,2.07,1.28,2.72t.01,0c.22.15.45.3.68.44.32.16.67.28,1.04.33-.03.08-.05.16-.07.24-.07.27-.1.56-.1.85,0,1.95,1.59,3.53,3.54,3.53.08,0,.16,0,.23-.01.16,1.8,1.67,3.22,3.52,3.22.43,0,.84-.08,1.22-.22.52,1.31,1.79,2.23,3.28,2.23.55,0,1.07-.13,1.54-.35.52,1.29,1.79,2.2,3.28,2.2.34,0,.68-.05.99-.14l-.34-6.87-.17-3.42-.04-.7-.05-.99-.09-1.78-.05-.93h3.83l-.05.93-.09,1.78-.05.99-.04.7-.17,3.42-.34,6.87c.32.09.65.14.99.14,1.48,0,2.75-.91,3.28-2.2.46.23.99.35,1.54.35,1.49,0,2.76-.92,3.28-2.23.38.14.79.22,1.22.22,1.84,0,3.36-1.41,3.52-3.22.08.01.15.01.23.01,1.95,0,3.54-1.58,3.54-3.53,0-.29-.04-.58-.1-.85-.02-.08-.04-.16-.07-.24.37-.05.72-.16,1.04-.33.23-.14.46-.29.68-.44t.01,0c.78-.65,1.28-1.63,1.28-2.72,0-.61-.15-1.18-.42-1.67-1,.96-2.1,1.82-3.29,2.55,1.14-.81,2.2-1.75,3.14-2.79.22-.24.43-.48.64-.73.37-.44.72-.9,1.05-1.37h0c.18-.43.28-.89.28-1.38,0-.63-.16-1.22-.45-1.73-.83,1.05-1.78,2.01-2.81,2.87ZM7.03,19.52c-.31-.19-.6-.39-.89-.6.32.19.64.38.97.56-.03.02-.05.03-.07.04ZM20.92,10.57c0-1.72,1.37-3.14,3.09-3.18,1.71.05,3.08,1.46,3.08,3.18,0,1.17-.63,2.19-1.58,2.74v1.79h-3.02v-1.79c-.94-.55-1.58-1.57-1.58-2.74ZM29.59,17.17h-11.17v-1.2h11.17v1.2ZM40.97,19.52s-.04-.03-.07-.04c.33-.17.65-.37.97-.56-.29.21-.59.41-.89.6Z"/>
</svg>